<svg width="1098" height="307" viewBox="0 0 1098 307" fill="none" xmlns="http://www.w3.org/2000/svg">
<path d="M378.72 230V86.3273H402.665V208.928H449.119V230H378.72ZM512.645 232.554C502.321 232.554 493.116 230.319 485.027 225.849C476.939 221.38 470.607 215.26 466.031 207.491C461.561 199.722 459.326 190.942 459.326 181.151C459.326 171.786 461.508 163.378 465.871 155.929C470.341 148.479 476.301 142.572 483.75 138.209C491.307 133.846 499.608 131.664 508.654 131.664C517.806 131.664 526.054 133.792 533.397 138.049C540.847 142.306 546.754 148.107 551.117 155.45C555.48 162.687 557.662 170.935 557.662 180.193V188.654H497.16C494.499 188.654 491.839 188.548 489.178 188.335C486.517 188.016 483.857 187.643 481.196 187.217C482.473 194.561 485.985 200.68 491.732 205.576C497.586 210.471 504.716 212.919 513.123 212.919C519.19 212.919 524.724 211.642 529.726 209.088C534.728 206.427 538.825 203.021 542.018 198.871L547.445 221.22C542.763 224.945 537.441 227.765 531.482 229.681C525.522 231.596 519.243 232.554 512.645 232.554ZM480.717 172.85C486.251 171.786 491.732 171.254 497.16 171.254H521.425C524.085 171.254 526.639 171.36 529.087 171.573C531.641 171.786 534.089 172.052 536.43 172.371C534.834 165.879 531.482 160.611 526.373 156.567C521.371 152.417 515.412 150.341 508.494 150.341C501.789 150.341 495.883 152.47 490.774 156.727C485.666 160.984 482.314 166.358 480.717 172.85ZM618.853 231.916C610.126 231.916 602.144 229.681 594.907 225.211C587.67 220.741 581.87 214.728 577.507 207.172C573.25 199.616 571.121 191.262 571.121 182.109C571.121 172.957 573.25 164.602 577.507 157.046C581.87 149.49 587.67 143.477 594.907 139.007C602.144 134.537 610.126 132.303 618.853 132.303C625.238 132.303 631.145 133.473 636.572 135.815C642.106 138.049 646.842 141.242 650.78 145.393V134.218H670.734V230H650.78V218.825C646.842 222.87 642.106 226.062 636.572 228.404C631.145 230.745 625.238 231.916 618.853 231.916ZM621.726 211.801C627.047 211.801 631.89 210.471 636.253 207.811C640.723 205.15 644.235 201.585 646.789 197.115C649.45 192.645 650.78 187.643 650.78 182.109C650.78 176.681 649.45 171.733 646.789 167.263C644.235 162.687 640.776 159.068 636.413 156.408C632.049 153.747 627.154 152.417 621.726 152.417C616.405 152.417 611.509 153.747 607.04 156.408C602.676 159.068 599.164 162.633 596.504 167.103C593.949 171.573 592.672 176.575 592.672 182.109C592.672 187.537 593.949 192.539 596.504 197.115C599.164 201.585 602.676 205.15 607.04 207.811C611.403 210.471 616.298 211.801 621.726 211.801ZM696.521 230V134.218H716.954V151.14C720.36 145.606 724.723 141.242 730.044 138.049C735.366 134.857 741.698 133.26 749.041 133.26L754.149 154.173C752.127 153.534 749.839 153.215 747.285 153.215C738.771 153.215 731.907 155.929 726.692 161.356C721.584 166.784 719.029 174.553 719.029 184.663V230H696.521ZM769.255 230V134.218H789.689V147.149C793.201 142.147 797.564 138.316 802.779 135.655C808.1 132.994 813.847 131.664 820.019 131.664C826.831 131.664 833.163 133.314 839.016 136.613C844.87 139.912 849.605 144.701 853.224 150.98C856.842 157.259 858.651 164.868 858.651 173.808V230H836.143V176.841C836.143 170.456 834.174 164.762 830.236 159.76C826.405 154.758 820.977 152.257 813.953 152.257C808.206 152.257 803.045 154.279 798.469 158.323C793.999 162.367 791.764 168.38 791.764 176.362V230H769.255ZM882.781 230V134.218H905.29V230H882.781ZM894.116 118.733C890.391 118.733 887.251 117.456 884.697 114.902C882.143 112.242 880.866 109.102 880.866 105.484C880.866 101.652 882.143 98.5128 884.697 96.0651C887.358 93.5109 890.497 92.2338 894.116 92.2338C897.947 92.2338 901.086 93.5109 903.534 96.0651C906.088 98.6193 907.366 101.759 907.366 105.484C907.366 109.208 906.088 112.348 903.534 114.902C900.98 117.456 897.841 118.733 894.116 118.733ZM942.51 230V152.417H922.716V134.218H942.989V108.357C942.989 97.3954 946.182 89.0943 952.568 83.4538C958.953 77.7069 966.722 74.8334 975.874 74.8334C979.28 74.8334 982.632 75.2591 985.932 76.1105C989.337 76.8555 992.423 78.0794 995.19 79.7822L990.401 99.4174C986.676 95.054 982.26 92.8723 977.152 92.8723C974.065 92.8723 971.192 93.9366 968.531 96.0651C965.871 98.1936 964.54 102.238 964.54 108.197V134.218H985.932V152.417H965.019V230H942.51ZM999.98 277.891L1031.43 214.835L991.678 134.218H1016.74L1035.42 172.531C1037.12 175.936 1038.66 179.236 1040.05 182.428C1041.43 185.515 1042.76 188.92 1044.04 192.645C1045.32 188.92 1046.65 185.515 1048.03 182.428C1049.52 179.236 1051.12 175.936 1052.82 172.531L1071.82 134.218H1095.76L1024.24 277.891H999.98Z" fill="black"/>
<path d="M0 40C0 21.2223 15.2223 6 34 6H260C278.778 6 294 21.2223 294 40V266C294 284.778 278.778 300 260 300H34C15.2223 300 0 284.778 0 266V40Z" fill="#FF9D00"/>
<path d="M99.8672 67.2129C117.457 66.1755 136.475 68.7392 152.211 78.9971L156.123 81.5479V213.367C160.458 212.26 165.871 211.131 172.203 210.309C187.021 208.385 206.903 208.134 229.762 213.762V91.9697C211.034 84.6938 197.973 85.1756 189.648 87.1338C189.648 87.1338 189.648 88.5 189.648 90V112L180.5 106L170 112V77.8809C168.456 77.8809 167.345 78.3196 167.117 78.4082C166.745 78.553 166.51 78.6827 166.497 78.6895C166.508 78.6826 166.639 78.6064 167.058 78.3447C167.846 77.8518 169.186 76.9995 170.873 76.0635C174.304 74.1604 179.217 71.8798 185.701 70.3545C198.814 67.27 217.321 67.5103 241.857 78.3311L246.999 80.5986V236.975L235.746 233.363C210.987 225.416 189.573 225.435 174.423 227.402C166.843 228.386 160.84 229.858 156.791 231.058C154.768 231.657 153.237 232.187 152.246 232.553C151.751 232.735 151.391 232.877 151.173 232.965C151.064 233.009 150.99 233.04 150.952 233.056C150.934 233.063 150.923 233.068 150.923 233.068L150.929 233.065L138.886 238.317V91.1455C127.998 85.4328 114.692 83.6054 100.882 84.4199C87.7489 85.1945 74.7812 88.3295 64.2363 92.127V213.724C83.1982 209.139 98.0989 209.97 109.125 212.462C115.65 213.936 120.662 215.957 124.19 217.609C125.918 218.418 127.327 219.16 128.147 219.579C128.359 219.687 128.517 219.766 128.639 219.826C128.73 219.871 128.776 219.893 128.788 219.898C128.776 219.893 128.731 219.873 128.658 219.845C128.588 219.818 128.461 219.771 128.292 219.719C128.088 219.655 127.21 219.381 126 219.381V236.618C124.651 236.618 123.595 236.31 123.174 236.179C122.647 236.015 122.201 235.83 121.909 235.703C121.336 235.454 120.739 235.15 120.302 234.927C119.306 234.418 118.26 233.866 116.879 233.219C114.19 231.959 110.368 230.414 105.325 229.274C95.3236 227.014 79.8761 226.205 58.3271 233.339L47 237.088V80.4541L52.3252 78.2529C65.1091 72.968 82.2071 68.2544 99.8672 67.2129Z" fill="white"/>
</svg>
